<svg xmlns="http://www.w3.org/2000/svg" viewBox="0 0 960 540" role="img" aria-label="EasyToolsClub product system illustration">
  <rect width="960" height="540" rx="32" fill="#FFFFFF"/>
  <rect x="48" y="48" width="864" height="444" rx="28" fill="#F8FAFC" stroke="#E2E8F0"/>
  <rect x="96" y="96" width="300" height="148" rx="18" fill="#0F172A"/>
  <rect x="124" y="126" width="124" height="16" rx="8" fill="#93C5FD"/>
  <rect x="124" y="160" width="214" height="18" rx="9" fill="#FFFFFF"/>
  <rect x="124" y="196" width="148" height="12" rx="6" fill="#CBD5E1"/>
  <rect x="432" y="96" width="200" height="148" rx="18" fill="#FFFFFF" stroke="#E2E8F0"/>
  <rect x="460" y="126" width="64" height="64" rx="16" fill="#DBEAFE"/>
  <rect x="460" y="210" width="126" height="14" rx="7" fill="#475569"/>
  <rect x="664" y="96" width="200" height="148" rx="18" fill="#FFFFFF" stroke="#E2E8F0"/>
  <rect x="692" y="126" width="64" height="64" rx="16" fill="#DCFCE7"/>
  <rect x="692" y="210" width="126" height="14" rx="7" fill="#475569"/>
  <rect x="96" y="280" width="768" height="164" rx="18" fill="#FFFFFF" stroke="#E2E8F0"/>
  <path d="M140 390c70-85 144-93 222-24s154 54 230-44 150-98 222 0" fill="none" stroke="#2563EB" stroke-width="12" stroke-linecap="round"/>
</svg>
